<?xml version="1.0" encoding="UTF-8" standalone="no"?>
<!-- Created with Inkscape (http://www.inkscape.org/) -->

<svg
   xmlns:dc="http://purl.org/dc/elements/1.1/"
   xmlns:cc="http://creativecommons.org/ns#"
   xmlns:rdf="http://www.w3.org/1999/02/22-rdf-syntax-ns#"
   xmlns:svg="http://www.w3.org/2000/svg"
   xmlns="http://www.w3.org/2000/svg"
   xmlns:sodipodi="http://sodipodi.sourceforge.net/DTD/sodipodi-0.dtd"
   xmlns:inkscape="http://www.inkscape.org/namespaces/inkscape"
   width="32px"
   height="32px"
   id="svg3103"
   version="1.1"
   inkscape:version="0.48.3.1 r9886"
   sodipodi:docname="koletivo-logo.svg">
  <defs
     id="defs3105" />
  <sodipodi:namedview
     id="base"
     pagecolor="#ffffff"
     bordercolor="#666666"
     borderopacity="1.0"
     inkscape:pageopacity="0.0"
     inkscape:pageshadow="2"
     inkscape:zoom="11.197802"
     inkscape:cx="16"
     inkscape:cy="16"
     inkscape:current-layer="layer1"
     showgrid="true"
     inkscape:grid-bbox="true"
     inkscape:document-units="px"
     inkscape:window-width="1366"
     inkscape:window-height="723"
     inkscape:window-x="0"
     inkscape:window-y="23"
     inkscape:window-maximized="1" />
  <metadata
     id="metadata3108">
    <rdf:RDF>
      <cc:Work
         rdf:about="">
        <dc:format>image/svg+xml</dc:format>
        <dc:type
           rdf:resource="http://purl.org/dc/dcmitype/StillImage" />
        <dc:title />
      </cc:Work>
    </rdf:RDF>
  </metadata>
  <g
     id="layer1"
     inkscape:label="Layer 1"
     inkscape:groupmode="layer">
    <g
       transform="matrix(0.25606499,0,0,0.25606499,-194.23058,-63.959952)"
       id="g9286"
       inkscape:export-filename="/media/vinicius/arquivos/Clientes/UnovaInvest/relatto-home.png"
       inkscape:export-xdpi="90"
       inkscape:export-ydpi="90">
      <path
         style="font-size:medium;font-style:normal;font-variant:normal;font-weight:normal;font-stretch:normal;text-indent:0;text-align:start;text-decoration:none;line-height:normal;letter-spacing:normal;word-spacing:normal;text-transform:none;direction:ltr;block-progression:tb;writing-mode:lr-tb;text-anchor:start;baseline-shift:baseline;color:#000000;fill:#d71a61;fill-opacity:1;stroke:none;stroke-width:2.29447365;marker:none;visibility:visible;display:inline;overflow:visible;enable-background:accumulate;font-family:Sans;-inkscape-font-specification:Sans"
         d="m 819.17669,267.18028 -0.75782,0.42069 -43.4218,25.08471 -0.75781,0.4207 -0.0151,0.91812 0.0166,50.09525 -0.0151,0.91813 0.77239,0.44594 43.4087,25.06203 0.7724,0.44594 0.78755,-0.47219 43.39207,-25.03321 0.78755,-0.47219 -0.0146,-0.86664 0.0131,-50.14673 -0.0146,-0.86664 -0.7724,-0.44594 -43.4087,-25.06203 -0.7724,-0.44594 z m -10e-4,3.56953 41.8639,24.17014 0.0172,48.31048 -41.87644,24.19183 -41.8639,-24.17014 0.0125,-48.36197 41.84671,-24.14034 z"
         id="path9288"
         inkscape:connector-curvature="0" />
      <path
         style="font-size:medium;font-style:normal;font-variant:normal;font-weight:normal;font-stretch:normal;text-indent:0;text-align:start;text-decoration:none;line-height:normal;letter-spacing:normal;word-spacing:normal;text-transform:none;direction:ltr;block-progression:tb;writing-mode:lr-tb;text-anchor:start;baseline-shift:baseline;color:#000000;fill:#da1721;fill-opacity:1;stroke:none;stroke-width:2.59480262;marker:none;visibility:visible;display:inline;overflow:visible;enable-background:accumulate;font-family:Sans;-inkscape-font-specification:Sans"
         d="m 820.48127,278.16233 -0.67592,0.37523 -32.25201,18.60643 -0.63764,0.39732 0.005,0.74279 -0.0178,37.24237 0.005,0.74279 0.65064,0.37565 32.26437,18.62784 0.65065,0.37565 0.64573,-0.36714 32.24392,-18.63662 0.64573,-0.36713 0.0253,-0.75088 -0.0124,-37.23428 -0.013,-0.77297 -0.65065,-0.37565 -32.2261,-18.60575 -0.65064,-0.37565 z m -0.0105,2.97924 30.96309,17.87654 -0.0277,35.7568 -30.92228,17.89425 -31.00135,-17.89864 0.0357,-35.7266 30.95246,-17.90235 z"
         id="path9290"
         inkscape:connector-curvature="0" />
      <path
         style="font-size:medium;font-style:normal;font-variant:normal;font-weight:normal;font-stretch:normal;text-indent:0;text-align:start;text-decoration:none;line-height:normal;letter-spacing:normal;word-spacing:normal;text-transform:none;direction:ltr;block-progression:tb;writing-mode:lr-tb;text-anchor:start;baseline-shift:baseline;color:#000000;fill:#00d3aa;fill-opacity:1;stroke:none;stroke-width:13.77742672;marker:none;visibility:visible;display:inline;overflow:visible;enable-background:accumulate;font-family:Sans;-inkscape-font-specification:Sans"
         d="m 818.69653,289.41843 -2.45283,1.41719 -22.95175,13.26585 -2.45859,1.39571 -9e-4,2.8328 -0.007,26.53122 -9.1e-4,2.8328 2.45192,1.41562 22.96631,13.25961 2.45192,1.41561 2.45283,-1.41719 22.97324,-13.27161 2.45283,-1.41719 9.1e-4,-2.8328 -0.009,-26.50397 9e-4,-2.83281 -2.45192,-1.41562 -22.96631,-13.2596 -2.45192,-1.41562 z m -0.004,11.33122 18.06247,10.42838 0.0106,20.83836 -18.06759,10.43723 -18.06247,-10.42837 0.005,-20.86561 18.05186,-10.40999 z"
         id="path9292"
         inkscape:connector-curvature="0" />
      <path
         style="font-size:medium;font-style:normal;font-variant:normal;font-weight:normal;font-stretch:normal;text-indent:0;text-align:start;text-decoration:none;line-height:normal;letter-spacing:normal;word-spacing:normal;text-transform:none;direction:ltr;block-progression:tb;writing-mode:lr-tb;text-anchor:start;baseline-shift:baseline;color:#000000;fill:#0088aa;fill-opacity:1;stroke:none;stroke-width:2.63336706;marker:none;visibility:visible;display:inline;overflow:visible;enable-background:accumulate;font-family:Sans;-inkscape-font-specification:Sans"
         d="m 829.37457,280.55723 -0.78491,0.43573 -37.44329,21.64179 -0.7849,0.43574 0.0151,0.89761 0.0144,43.23834 -0.0199,0.90701 0.75556,0.43622 37.46704,21.63161 0.79061,0.42683 0.74986,-0.42634 37.47834,-21.65118 0.74985,-0.42634 -0.0151,-0.89762 0.0207,-43.24773 -0.0151,-0.89762 -0.75556,-0.43622 -37.46704,-21.6316 -0.75556,-0.43623 z m -0.0285,3.53914 35.95591,20.75916 -0.006,41.47816 -35.91791,20.74467 -35.95591,-20.75915 0.006,-41.47817 35.91792,-20.74467 z"
         id="path9294"
         inkscape:connector-curvature="0" />
      <path
         style="font-size:medium;font-style:normal;font-variant:normal;font-weight:normal;font-stretch:normal;text-indent:0;text-align:start;text-decoration:none;line-height:normal;letter-spacing:normal;word-spacing:normal;text-transform:none;direction:ltr;block-progression:tb;writing-mode:lr-tb;text-anchor:start;baseline-shift:baseline;color:#000000;fill:#ff6600;fill-opacity:1;stroke:none;stroke-width:2.26521325;marker:none;visibility:visible;display:inline;overflow:visible;enable-background:accumulate;font-family:Sans;-inkscape-font-specification:Sans"
         d="m 820.31247,271.38519 -0.66051,0.40793 -38.40721,22.14632 -0.66051,0.40793 0.0129,0.76636 -0.0116,44.3444 0.0129,0.76636 0.68303,0.39434 38.37638,22.12626 0.64711,0.40397 0.70605,-0.38164 38.36167,-22.17261 0.67014,-0.37201 0.023,-0.77599 -0.0243,-44.33478 0.023,-0.77598 -0.68303,-0.39434 -38.386,-22.16217 -0.68303,-0.39435 z m -0.0106,3.1206 37.05587,21.36386 0.0248,42.75652 -37.06694,21.40229 -37.01996,-21.37348 10e-4,-42.80206 37.00474,-21.34713 z"
         id="path9296"
         inkscape:connector-curvature="0" />
      <path
         style="font-size:medium;font-style:normal;font-variant:normal;font-weight:normal;font-stretch:normal;text-indent:0;text-align:start;text-decoration:none;line-height:normal;letter-spacing:normal;word-spacing:normal;text-transform:none;direction:ltr;block-progression:tb;writing-mode:lr-tb;text-anchor:start;baseline-shift:baseline;color:#000000;fill:#ffff00;fill-opacity:1;stroke:none;stroke-width:6.77751303;marker:none;visibility:visible;display:inline;overflow:visible;enable-background:accumulate;font-family:Sans;-inkscape-font-specification:Sans"
         d="m 812.60251,284.12977 -1.4128,0.80576 -26.6106,15.38062 -1.4128,0.80576 0.002,1.60149 -0.008,30.76068 0.002,1.6015 1.42139,0.82064 26.60257,15.38006 1.41472,0.79573 1.38789,-0.79909 26.63551,-15.3873 1.38789,-0.79908 -0.009,-1.62641 0.0147,-30.73576 -0.009,-1.62641 -1.38981,-0.80241 -26.62748,-15.37338 -1.38981,-0.8024 z m -0.004,6.46247 23.82295,13.77524 -3.1e-4,27.50119 -23.81658,13.75087 -23.84786,-13.76857 3.1e-4,-27.5012 23.84149,-13.75753 z"
         id="path9298"
         inkscape:connector-curvature="0" />
      <path
         style="font-size:medium;font-style:normal;font-variant:normal;font-weight:normal;font-stretch:normal;text-indent:0;text-align:start;text-decoration:none;line-height:normal;letter-spacing:normal;word-spacing:normal;text-transform:none;direction:ltr;block-progression:tb;writing-mode:lr-tb;text-anchor:start;baseline-shift:baseline;color:#000000;fill:#00aa44;fill-opacity:1;stroke:none;stroke-width:4.28015089;marker:none;visibility:visible;display:inline;overflow:visible;enable-background:accumulate;font-family:Sans;-inkscape-font-specification:Sans"
         d="m 822.58503,291.34927 -0.85988,0.48415 -25.29584,14.59336 -0.82986,0.50148 0.004,0.96308 -0.014,29.20986 0.004,0.96308 0.84052,0.48527 25.30553,14.61016 0.84052,0.48527 0.8362,-0.47781 25.28949,-14.61703 0.85989,-0.48415 -0.004,-0.96308 -0.01,-29.20352 0.013,-0.9931 -0.84052,-0.48527 -25.30553,-14.61016 -0.83417,-0.46159 z m -0.006,3.85865 23.6245,13.63962 -0.0226,27.2837 -23.59975,13.63141 -23.6245,-13.63961 0.005,-27.25369 23.61709,-13.66143 z"
         id="path9300"
         inkscape:connector-curvature="0" />
    </g>
  </g>
</svg>
